<svg width="24" height="25" viewBox="0 0 24 25" fill="none" xmlns="http://www.w3.org/2000/svg">
<path d="M13.4099 12.7028L19.7099 6.41282C19.8982 6.22452 20.004 5.96912 20.004 5.70282C20.004 5.43652 19.8982 5.18113 19.7099 4.99282C19.5216 4.80452 19.2662 4.69873 18.9999 4.69873C18.7336 4.69873 18.4782 4.80452 18.2899 4.99282L11.9999 11.2928L5.70994 4.99282C5.52164 4.80452 5.26624 4.69873 4.99994 4.69873C4.73364 4.69873 4.47824 4.80452 4.28994 4.99282C4.10164 5.18113 3.99585 5.43652 3.99585 5.70282C3.99585 5.96912 4.10164 6.22452 4.28994 6.41282L10.5899 12.7028L4.28994 18.9928C4.19621 19.0858 4.12182 19.1964 4.07105 19.3182C4.02028 19.4401 3.99414 19.5708 3.99414 19.7028C3.99414 19.8348 4.02028 19.9655 4.07105 20.0874C4.12182 20.2093 4.19621 20.3199 4.28994 20.4128C4.3829 20.5065 4.4935 20.5809 4.61536 20.6317C4.73722 20.6825 4.86793 20.7086 4.99994 20.7086C5.13195 20.7086 5.26266 20.6825 5.38452 20.6317C5.50638 20.5809 5.61698 20.5065 5.70994 20.4128L11.9999 14.1128L18.2899 20.4128C18.3829 20.5065 18.4935 20.5809 18.6154 20.6317C18.7372 20.6825 18.8679 20.7086 18.9999 20.7086C19.132 20.7086 19.2627 20.6825 19.3845 20.6317C19.5064 20.5809 19.617 20.5065 19.7099 20.4128C19.8037 20.3199 19.8781 20.2093 19.9288 20.0874C19.9796 19.9655 20.0057 19.8348 20.0057 19.7028C20.0057 19.5708 19.9796 19.4401 19.9288 19.3182C19.8781 19.1964 19.8037 19.0858 19.7099 18.9928L13.4099 12.7028Z" fill="#898989"/>
</svg>
