<svg width="25" height="25" viewBox="0 0 25 25" fill="none" xmlns="http://www.w3.org/2000/svg">
<path d="M19.4932 11.5H13.4932V5.5C13.4932 5.23478 13.3878 4.98043 13.2003 4.79289C13.0127 4.60536 12.7584 4.5 12.4932 4.5C12.2279 4.5 11.9736 4.60536 11.7861 4.79289C11.5985 4.98043 11.4932 5.23478 11.4932 5.5V11.5H5.49316C5.22795 11.5 4.97359 11.6054 4.78606 11.7929C4.59852 11.9804 4.49316 12.2348 4.49316 12.5C4.49316 12.7652 4.59852 13.0196 4.78606 13.2071C4.97359 13.3946 5.22795 13.5 5.49316 13.5H11.4932V19.5C11.4932 19.7652 11.5985 20.0196 11.7861 20.2071C11.9736 20.3946 12.2279 20.5 12.4932 20.5C12.7584 20.5 13.0127 20.3946 13.2003 20.2071C13.3878 20.0196 13.4932 19.7652 13.4932 19.5V13.5H19.4932C19.7584 13.5 20.0127 13.3946 20.2003 13.2071C20.3878 13.0196 20.4932 12.7652 20.4932 12.5C20.4932 12.2348 20.3878 11.9804 20.2003 11.7929C20.0127 11.6054 19.7584 11.5 19.4932 11.5Z" fill="white"/>
</svg>
