<svg width="28" height="28" viewBox="0 0 28 28" fill="none" xmlns="http://www.w3.org/2000/svg">
<path d="M25.328 23.6718L20.9996 19.3785C22.6798 17.2836 23.4934 14.6246 23.2733 11.9483C23.0531 9.27198 21.8159 6.78171 19.8161 4.98955C17.8162 3.19739 15.2058 2.23956 12.5214 2.31301C9.83702 2.38647 7.28282 3.48562 5.38398 5.38446C3.48513 7.28331 2.38598 9.83751 2.31253 12.5219C2.23907 15.2062 3.1969 17.8167 4.98906 19.8166C6.78122 21.8164 9.2715 23.0536 11.9478 23.2737C14.6242 23.4939 17.2831 22.6802 19.378 21.0001L23.6713 25.2935C23.7798 25.4028 23.9088 25.4896 24.051 25.5488C24.1931 25.6081 24.3456 25.6386 24.4996 25.6386C24.6537 25.6386 24.8061 25.6081 24.9483 25.5488C25.0905 25.4896 25.2195 25.4028 25.328 25.2935C25.5383 25.0759 25.6558 24.7852 25.6558 24.4826C25.6558 24.1801 25.5383 23.8893 25.328 23.6718ZM12.833 21.0001C11.2178 21.0001 9.63882 20.5212 8.29582 19.6238C6.95282 18.7264 5.90608 17.451 5.28796 15.9587C4.66985 14.4665 4.50812 12.8244 4.82323 11.2402C5.13834 9.65605 5.91614 8.20089 7.05827 7.05876C8.2004 5.91663 9.65556 5.13883 11.2397 4.82372C12.8239 4.50861 14.466 4.67033 15.9582 5.28845C17.4505 5.90657 18.7259 6.95331 19.6233 8.29631C20.5207 9.63931 20.9996 11.2183 20.9996 12.8335C20.9996 14.9994 20.1392 17.0766 18.6077 18.6082C17.0761 20.1397 14.9989 21.0001 12.833 21.0001Z" fill="black"/>
</svg>
