<svg width="24" height="25" viewBox="0 0 24 25" fill="none" xmlns="http://www.w3.org/2000/svg">
<path d="M21.7104 20.9925L18.0004 17.3125C19.4405 15.517 20.1379 13.2378 19.9492 10.9438C19.7605 8.64984 18.7001 6.51532 16.9859 4.97919C15.2718 3.44305 13.0342 2.62205 10.7333 2.68501C8.43243 2.74797 6.24311 3.6901 4.61553 5.31768C2.98795 6.94526 2.04582 9.13458 1.98286 11.4355C1.9199 13.7363 2.7409 15.9739 4.27704 17.6881C5.81318 19.4022 7.94769 20.4627 10.2417 20.6514C12.5357 20.84 14.8148 20.1426 16.6104 18.7025L20.2904 22.3825C20.3834 22.4763 20.494 22.5507 20.6158 22.6014C20.7377 22.6522 20.8684 22.6783 21.0004 22.6783C21.1324 22.6783 21.2631 22.6522 21.385 22.6014C21.5068 22.5507 21.6174 22.4763 21.7104 22.3825C21.8906 22.1961 21.9914 21.9469 21.9914 21.6875C21.9914 21.4282 21.8906 21.179 21.7104 20.9925ZM11.0004 18.7025C9.61592 18.7025 8.26255 18.292 7.1114 17.5228C5.96026 16.7537 5.06305 15.6604 4.53324 14.3813C4.00342 13.1022 3.8648 11.6948 4.1349 10.3369C4.40499 8.97904 5.07168 7.73176 6.05065 6.75279C7.02961 5.77383 8.27689 5.10714 9.63476 4.83704C10.9926 4.56695 12.4001 4.70557 13.6792 5.23538C14.9583 5.7652 16.0515 6.66241 16.8207 7.81355C17.5899 8.96469 18.0004 10.3181 18.0004 11.7025C18.0004 13.5591 17.2629 15.3395 15.9501 16.6523C14.6374 17.965 12.8569 18.7025 11.0004 18.7025Z" fill="#898989"/>
</svg>
