<svg width="48" height="48" viewBox="0 0 48 48" fill="none" xmlns="http://www.w3.org/2000/svg">
<path fill-rule="evenodd" clip-rule="evenodd" d="M4 12C4 10.8954 4.89543 10 6 10H42C43.1046 10 44 10.8954 44 12C44 13.1046 43.1046 14 42 14H6C4.89543 14 4 13.1046 4 12ZM4 24C4 22.8954 4.89543 22 6 22H42C43.1046 22 44 22.8954 44 24C44 25.1046 43.1046 26 42 26H6C4.89543 26 4 25.1046 4 24ZM6 34C4.89543 34 4 34.8954 4 36C4 37.1046 4.89543 38 6 38H42C43.1046 38 44 37.1046 44 36C44 34.8954 43.1046 34 42 34H6Z" fill="black"/>
</svg>
