<svg width="25" height="25" viewBox="0 0 25 25" fill="none" xmlns="http://www.w3.org/2000/svg">
<path d="M11.772 16.1781L6.12197 10.5181C6.02824 10.4251 5.95385 10.3145 5.90308 10.1926C5.85231 10.0708 5.82617 9.94008 5.82617 9.80807C5.82617 9.67606 5.85231 9.54535 5.90308 9.42349C5.95385 9.30163 6.02824 9.19103 6.12197 9.09807C6.30933 8.91182 6.56278 8.80727 6.82697 8.80727C7.09116 8.80727 7.34461 8.91182 7.53197 9.09807L12.532 14.0481L17.482 9.09807C17.6693 8.91182 17.9228 8.80727 18.187 8.80727C18.4512 8.80727 18.7046 8.91182 18.892 9.09807C18.9865 9.19068 19.0616 9.30113 19.1131 9.423C19.1646 9.54488 19.1914 9.67576 19.192 9.80807C19.1914 9.94037 19.1646 10.0713 19.1131 10.1931C19.0616 10.315 18.9865 10.4255 18.892 10.5181L13.242 16.1781C13.1483 16.2796 13.0347 16.3606 12.9082 16.416C12.7817 16.4714 12.6451 16.5 12.507 16.5C12.3689 16.5 12.2323 16.4714 12.1058 16.416C11.9793 16.3606 11.8656 16.2796 11.772 16.1781Z" fill="white"/>
</svg>
