<svg width="1570" height="803" viewBox="0 0 1570 803" fill="none" xmlns="http://www.w3.org/2000/svg">
<path d="M167.929 369.547C167.929 368.442 168.824 367.547 169.929 367.547H197.915C199.02 367.547 199.915 368.442 199.915 369.547V603.371C199.915 604.476 199.02 605.371 197.915 605.371H169.929C168.824 605.371 167.929 604.476 167.929 603.371V369.547Z" fill="#0095FF"/>
<path d="M210.577 391.167C210.577 390.062 211.473 389.167 212.577 389.167H240.564C241.668 389.167 242.564 390.062 242.564 391.167V603.371C242.564 604.476 241.668 605.371 240.564 605.371H212.577C211.473 605.371 210.577 604.476 210.577 603.371V391.167Z" fill="#00E096"/>
<path d="M386.503 315.495C386.503 314.391 387.398 313.495 388.503 313.495H416.489C417.594 313.495 418.489 314.391 418.489 315.495V603.37C418.489 604.475 417.594 605.37 416.489 605.37H388.503C387.398 605.37 386.503 604.475 386.503 603.37V315.495Z" fill="#0095FF"/>
<path d="M429.151 404.68C429.151 403.575 430.047 402.68 431.151 402.68H459.138C460.242 402.68 461.138 403.575 461.138 404.68V603.371C461.138 604.475 460.242 605.371 459.138 605.371H431.151C430.047 605.371 429.151 604.475 429.151 603.371V404.68Z" fill="#00E096"/>
<path d="M594.414 510.079C594.414 508.975 595.309 508.079 596.414 508.079H624.4C625.505 508.079 626.4 508.975 626.4 510.079V603.371C626.4 604.475 625.505 605.371 624.4 605.371H596.414C595.309 605.371 594.414 604.475 594.414 603.371V510.079Z" fill="#0095FF"/>
<path d="M637.063 218.204C637.063 217.1 637.958 216.204 639.063 216.204H667.049C668.154 216.204 669.049 217.1 669.049 218.204V603.371C669.049 604.476 668.154 605.371 667.049 605.371H639.063C637.958 605.371 637.063 604.476 637.063 603.371V218.204Z" fill="#00E096"/>
<path d="M804.992 337.115C804.992 336.011 805.887 335.115 806.992 335.115H834.978C836.083 335.115 836.978 336.011 836.978 337.115V603.37C836.978 604.475 836.083 605.37 834.978 605.37H806.992C805.887 605.37 804.992 604.475 804.992 603.37V337.115Z" fill="#0095FF"/>
<path d="M847.64 499.269C847.64 498.164 848.536 497.269 849.64 497.269H877.627C878.731 497.269 879.627 498.164 879.627 499.269V603.371C879.627 604.475 878.731 605.371 877.627 605.371H849.64C848.536 605.371 847.64 604.475 847.64 603.371V499.269Z" fill="#00E096"/>
<path d="M1010.24 401.978C1010.24 400.873 1011.13 399.978 1012.24 399.978H1040.22C1041.33 399.978 1042.22 400.873 1042.22 401.978V603.371C1042.22 604.476 1041.33 605.371 1040.22 605.371H1012.24C1011.13 605.371 1010.24 604.476 1010.24 603.371V401.978Z" fill="#0095FF"/>
<path d="M1052.89 415.49C1052.89 414.386 1053.78 413.49 1054.89 413.49H1082.87C1083.98 413.49 1084.87 414.386 1084.87 415.49V603.371C1084.87 604.476 1083.98 605.371 1082.87 605.371H1054.89C1053.78 605.371 1052.89 604.476 1052.89 603.371V415.49Z" fill="#00E096"/>
<path d="M1215.48 320.9C1215.48 319.796 1216.38 318.9 1217.48 318.9H1245.47C1246.58 318.9 1247.47 319.796 1247.47 320.9V603.371C1247.47 604.475 1246.58 605.371 1245.47 605.371H1217.48C1216.38 605.371 1215.48 604.475 1215.48 603.371V320.9Z" fill="#0095FF"/>
<path d="M1258.13 377.654C1258.13 376.55 1259.03 375.654 1260.13 375.654H1288.12C1289.22 375.654 1290.12 376.55 1290.12 377.654V603.371C1290.12 604.476 1289.22 605.371 1288.12 605.371H1260.13C1259.03 605.371 1258.13 604.476 1258.13 603.371V377.654Z" fill="#00E096"/>
<path d="M1434.06 245.229C1434.06 244.124 1434.95 243.229 1436.06 243.229H1464.04C1465.15 243.229 1466.04 244.124 1466.04 245.229V603.37C1466.04 604.475 1465.15 605.37 1464.04 605.37H1436.06C1434.95 605.37 1434.06 604.475 1434.06 603.37V245.229Z" fill="#0095FF"/>
<path d="M1476.71 418.191C1476.71 417.087 1477.6 416.191 1478.71 416.191H1506.69C1507.8 416.191 1508.69 417.087 1508.69 418.191V603.37C1508.69 604.474 1507.8 605.37 1506.69 605.37H1478.71C1477.6 605.37 1476.71 604.474 1476.71 603.37V418.191Z" fill="#00E096"/>
</svg>
