<svg width="72" height="60" viewBox="0 0 72 60" fill="none" xmlns="http://www.w3.org/2000/svg">
<path d="M37.7701 14.7725L37.6796 14.7461C37.2055 14.6081 36.9299 14.1186 37.0735 13.6484L37.7701 14.7725ZM37.7701 14.7725L37.7739 14.7682M37.7701 14.7725L37.7739 14.7682M37.7739 14.7682C38.2191 14.8486 38.6649 14.5897 38.7975 14.1529L37.7739 14.7682ZM47.9984 5.70156C42.8235 5.70156 38.4715 9.06412 37.0736 13.6483L38.7976 14.1527C39.9978 10.2175 43.7803 7.46504 47.9984 7.46504C48.4918 7.46504 48.8982 7.07359 48.8982 6.5833C48.8982 6.09299 48.4917 5.70156 47.9984 5.70156Z" fill="#152C70" stroke="#F9FFF9" stroke-width="0.3"/>
<path d="M58.4953 42.4384H53.9964C53.5824 42.4384 53.2466 42.1107 53.2466 41.7067C53.2466 41.3027 53.5824 40.9749 53.9964 40.9749H58.4953C64.6968 40.9749 69.7426 36.0509 69.7426 29.999C69.7426 23.9471 64.6968 19.023 58.4953 19.023H58.3871C58.1697 19.023 57.9629 18.9311 57.8205 18.7706C57.678 18.6101 57.6137 18.3974 57.6448 18.1873C57.7118 17.7315 57.7455 17.2737 57.7455 16.8279C57.7455 11.5829 53.3724 7.31531 47.9978 7.31531C45.9069 7.31531 43.9129 7.95296 42.2311 9.15978C41.8615 9.42478 41.3367 9.30718 41.123 8.91047C36.36 0.0596993 23.9198 -1.12887 17.4701 6.57053C14.7532 9.81417 13.6856 14.0336 14.5411 18.146C14.6353 18.6002 14.2791 19.0236 13.8062 19.0236H13.5058C7.30428 19.0236 2.2585 23.9477 2.2585 29.9996C2.2585 36.0514 7.30428 40.9755 13.5058 40.9755H18.0046C18.4186 40.9755 18.7544 41.3032 18.7544 41.7072C18.7544 42.1113 18.4186 42.439 18.0046 42.439H13.5058C6.47723 42.439 0.758789 36.8585 0.758789 29.9995C0.758789 23.3329 6.16065 17.8742 12.9172 17.5731C12.2825 13.3066 13.4961 9.00295 16.309 5.64437C23.2142 -2.5996 36.4477 -1.67556 42.0418 7.51707C43.8264 6.42522 45.8685 5.85244 47.9975 5.85244C54.5092 5.85244 59.669 11.261 59.2175 17.58C65.9118 17.9463 71.2419 23.3763 71.2419 29.999C71.2419 36.8585 65.5235 42.4384 58.495 42.4384L58.4953 42.4384Z" fill="#152C70"/>
<path d="M17.0043 41.2935C17.0043 51.4669 25.4843 59.737 35.9 59.737C46.3158 59.737 54.7957 51.4667 54.7957 41.2935C54.7957 31.1201 46.3158 22.85 35.9 22.85C25.4842 22.85 17.0043 31.1202 17.0043 41.2935ZM18.8043 41.2935C18.8043 32.1 26.4701 24.6138 35.9 24.6138C45.3297 24.6138 52.9957 32.0999 52.9957 41.2935C52.9957 50.4869 45.3297 57.9732 35.9 57.9732C26.4702 57.9732 18.8043 50.4871 18.8043 41.2935Z" fill="#152C70" stroke="#F9FFF9" stroke-width="0.3"/>
<path d="M35.5434 48.6577C35.5434 49.0397 35.8599 49.3434 36.2423 49.3434C36.6247 49.3434 36.9413 49.0402 36.9413 48.6577V34.7291C36.9413 34.347 36.6248 34.0434 36.2423 34.0434C35.8598 34.0434 35.5434 34.347 35.5434 34.7291V48.6577Z" fill="#152C70" stroke="#152C70" stroke-width="0.3"/>
<path d="M40.1411 39.502C40.2776 39.6352 40.4566 39.7015 40.634 39.7015L35.7493 34.2441L31.3579 38.5296C31.0831 38.7978 31.0831 39.2338 31.3579 39.502C31.6305 39.7681 32.0714 39.7682 32.3439 39.5019L36.2424 35.6973L40.1411 39.502ZM36.7353 34.244C36.4627 33.9779 36.0219 33.9777 35.7494 34.244L40.634 39.7015C40.8111 39.7015 40.9903 39.6357 41.1271 39.5018C41.4017 39.2336 41.4016 38.7977 41.1269 38.5296L36.7353 34.244Z" fill="#152C70" stroke="#152C70" stroke-width="0.3"/>
</svg>
