<svg width="39" height="24" viewBox="0 0 39 24" fill="none" xmlns="http://www.w3.org/2000/svg">
<path fill-rule="evenodd" clip-rule="evenodd" d="M0.75 1.95536C0.75 1.03077 1.58947 0.28125 2.625 0.28125H36.375C37.4105 0.28125 38.25 1.03077 38.25 1.95536C38.25 2.87994 37.4105 3.62946 36.375 3.62946H2.625C1.58947 3.62946 0.75 2.87994 0.75 1.95536ZM0.75 12C0.75 11.0754 1.58947 10.3259 2.625 10.3259H36.375C37.4105 10.3259 38.25 11.0754 38.25 12C38.25 12.9246 37.4105 13.6741 36.375 13.6741H2.625C1.58947 13.6741 0.75 12.9246 0.75 12ZM2.625 20.3705C1.58947 20.3705 0.75 21.1201 0.75 22.0446C0.75 22.9692 1.58947 23.7188 2.625 23.7188H36.375C37.4105 23.7188 38.25 22.9692 38.25 22.0446C38.25 21.1201 37.4105 20.3705 36.375 20.3705H2.625Z" fill="black"/>
</svg>
